<svg width="256" height="256" viewBox="0 0 256 256" fill="none" xmlns="http://www.w3.org/2000/svg">
<g clip-path="url(#clip0_1_36)">
<path d="M211 256H45C20.1 256 0 235.9 0 211V45C0 20.1 20.1 0 45 0H211C235.9 0 256 20.1 256 45V211C256 235.9 235.9 256 211 256Z" fill="#004656"/>
<rect x="128.294" y="33.8" width="50.7589" height="52.6" rx="10" fill="#00323A"/>
<rect x="44.8027" y="100.3" width="173.251" height="52.6" rx="10" fill="#00323A"/>
<rect x="41.2449" y="169.6" width="156.072" height="52.6" rx="10" fill="#00323A"/>
<path d="M35.4021 73.032C33.5301 73.032 31.8381 72.672 30.3261 71.952C28.8381 71.208 27.6501 70.14 26.7621 68.748C25.8981 67.332 25.4661 65.64 25.4661 63.672C25.4661 61.704 25.9461 60.024 26.9061 58.632C27.8661 57.216 29.1261 56.148 30.6861 55.428C32.2701 54.684 33.9741 54.312 35.7981 54.312C37.2141 54.312 38.4981 54.54 39.6501 54.996C40.8021 55.428 41.7501 56.004 42.4941 56.724L40.0461 60C39.3501 59.52 38.6781 59.172 38.0301 58.956C37.4061 58.716 36.7581 58.596 36.0861 58.596C35.0781 58.596 34.1781 58.8 33.3861 59.208C32.5941 59.616 31.9821 60.204 31.5501 60.972C31.1181 61.74 30.9021 62.64 30.9021 63.672C30.9021 64.704 31.1061 65.604 31.5141 66.372C31.9461 67.14 32.5341 67.728 33.2781 68.136C34.0461 68.544 34.9221 68.748 35.9061 68.748C36.8421 68.748 37.6941 68.58 38.4621 68.244C39.2541 67.908 39.9741 67.512 40.6221 67.056L42.7461 70.404C41.6901 71.292 40.5021 71.952 39.1821 72.384C37.8861 72.816 36.6261 73.032 35.4021 73.032ZM68.7459 58.416V54.672H85.3059V58.416H68.7459ZM68.7459 66.768V63.024H85.3059V66.768H68.7459ZM120.234 62.16C118.914 62.16 117.882 61.656 117.138 60.648C116.394 59.616 116.022 58.2 116.022 56.4C116.022 54.456 116.538 52.728 117.57 51.216C118.626 49.704 120.21 48.468 122.322 47.508L123.69 50.316C122.37 50.916 121.362 51.672 120.666 52.584C119.994 53.472 119.658 54.54 119.658 55.788L119.874 59.208L117.75 56.292C118.086 56.004 118.494 55.764 118.974 55.572C119.478 55.356 119.958 55.248 120.414 55.248C121.374 55.248 122.154 55.548 122.754 56.148C123.378 56.748 123.69 57.54 123.69 58.524C123.69 59.628 123.366 60.516 122.718 61.188C122.07 61.836 121.242 62.16 120.234 62.16ZM145.492 78.36L133.648 47.04H138.076L149.92 78.36H145.492ZM155.162 72.6V54.744H159.482L159.878 57.12H160.022C160.79 56.352 161.666 55.692 162.65 55.14C163.658 54.588 164.834 54.312 166.178 54.312C168.194 54.312 169.67 54.96 170.606 56.256C171.542 57.552 172.01 59.328 172.01 61.584V72.6H166.718V62.268C166.718 61.068 166.514 60.192 166.106 59.64C165.722 59.088 165.05 58.812 164.09 58.812C163.37 58.812 162.734 58.98 162.182 59.316C161.654 59.628 161.078 60.084 160.454 60.684V72.6H155.162ZM182.832 62.16L181.428 59.352C182.772 58.752 183.78 58.008 184.452 57.12C185.124 56.208 185.46 55.128 185.46 53.88L185.244 50.46L187.368 53.376C187.032 53.664 186.624 53.916 186.144 54.132C185.664 54.348 185.196 54.456 184.74 54.456C183.78 54.456 182.988 54.156 182.364 53.556C181.74 52.932 181.428 52.128 181.428 51.144C181.428 50.064 181.752 49.188 182.4 48.516C183.072 47.844 183.9 47.508 184.884 47.508C186.228 47.508 187.26 48.012 187.98 49.02C188.724 50.028 189.096 51.444 189.096 53.268C189.096 55.236 188.568 56.976 187.512 58.488C186.48 59.976 184.92 61.2 182.832 62.16Z" fill="white"/>
<path d="M29.1021 128.66C27.7821 128.66 26.7501 128.156 26.0061 127.148C25.2621 126.116 24.8901 124.7 24.8901 122.9C24.8901 120.956 25.4061 119.228 26.4381 117.716C27.4941 116.204 29.0781 114.968 31.1901 114.008L32.5581 116.816C31.2381 117.416 30.2301 118.172 29.5341 119.084C28.8621 119.972 28.5261 121.04 28.5261 122.288L28.7421 125.708L26.6181 122.792C26.9541 122.504 27.3621 122.264 27.8421 122.072C28.3461 121.856 28.8261 121.748 29.2821 121.748C30.2421 121.748 31.0221 122.048 31.6221 122.648C32.2461 123.248 32.5581 124.04 32.5581 125.024C32.5581 126.128 32.2341 127.016 31.5861 127.688C30.9381 128.336 30.1101 128.66 29.1021 128.66ZM38.6781 128.66C37.3581 128.66 36.3261 128.156 35.5821 127.148C34.8381 126.116 34.4661 124.7 34.4661 122.9C34.4661 120.956 34.9821 119.228 36.0141 117.716C37.0701 116.204 38.6541 114.968 40.7661 114.008L42.1341 116.816C40.8141 117.416 39.8061 118.172 39.1101 119.084C38.4381 119.972 38.1021 121.04 38.1021 122.288L38.3181 125.708L36.1941 122.792C36.5301 122.504 36.9381 122.264 37.4181 122.072C37.9221 121.856 38.4021 121.748 38.8581 121.748C39.8181 121.748 40.5981 122.048 41.1981 122.648C41.8221 123.248 42.1341 124.04 42.1341 125.024C42.1341 126.128 41.8101 127.016 41.1621 127.688C40.5141 128.336 39.6861 128.66 38.6781 128.66ZM47.232 139.1V113.864H52.524V120.056L52.236 123.476H52.344C53.016 122.78 53.832 122.168 54.792 121.64C55.776 121.088 56.94 120.812 58.284 120.812C60.3 120.812 61.764 121.46 62.676 122.756C63.612 124.052 64.08 125.828 64.08 128.084V139.1H58.788V128.768C58.788 127.568 58.584 126.692 58.176 126.14C57.792 125.588 57.12 125.312 56.16 125.312C55.44 125.312 54.804 125.48 54.252 125.816C53.724 126.128 53.148 126.584 52.524 127.184V139.1H47.232ZM76.2339 139.1V125.384H69.0339V121.244H81.5259V139.1H76.2339ZM78.6459 118.436C77.6379 118.436 76.7979 118.148 76.1259 117.572C75.4539 116.972 75.1179 116.192 75.1179 115.232C75.1179 114.248 75.4539 113.456 76.1259 112.856C76.7979 112.232 77.6379 111.92 78.6459 111.92C79.6779 111.92 80.5179 112.232 81.1659 112.856C81.8379 113.456 82.1739 114.248 82.1739 115.232C82.1739 116.192 81.8379 116.972 81.1659 117.572C80.5179 118.148 79.6779 118.436 78.6459 118.436ZM112.458 139.1L109.542 121.244H114.654L115.77 129.524C115.89 130.388 115.986 131.264 116.058 132.152C116.154 133.016 116.25 133.904 116.346 134.816H116.454C116.574 133.904 116.694 133.004 116.814 132.116C116.958 131.228 117.114 130.364 117.282 129.524L118.398 123.62H122.25L123.402 129.524C123.57 130.388 123.726 131.264 123.87 132.152C124.038 133.016 124.182 133.904 124.302 134.816H124.446C124.566 133.904 124.65 133.016 124.698 132.152C124.77 131.264 124.854 130.388 124.95 129.524L125.958 121.244H130.854L128.118 139.1H121.89L120.918 133.304C120.822 132.512 120.714 131.684 120.594 130.82C120.498 129.956 120.39 129.02 120.27 128.012H120.126C120.054 128.756 119.97 129.548 119.874 130.388C119.778 131.204 119.658 132.176 119.514 133.304L118.578 139.1H112.458ZM141.784 139.532C140.224 139.532 138.748 139.172 137.356 138.452C135.964 137.708 134.836 136.64 133.972 135.248C133.108 133.832 132.676 132.14 132.676 130.172C132.676 128.204 133.108 126.524 133.972 125.132C134.836 123.716 135.964 122.648 137.356 121.928C138.748 121.184 140.224 120.812 141.784 120.812C143.344 120.812 144.82 121.184 146.212 121.928C147.604 122.648 148.732 123.716 149.596 125.132C150.46 126.524 150.892 128.204 150.892 130.172C150.892 132.14 150.46 133.832 149.596 135.248C148.732 136.64 147.604 137.708 146.212 138.452C144.82 139.172 143.344 139.532 141.784 139.532ZM141.784 135.248C142.6 135.248 143.272 135.044 143.8 134.636C144.352 134.228 144.76 133.64 145.024 132.872C145.312 132.104 145.456 131.204 145.456 130.172C145.456 129.14 145.312 128.24 145.024 127.472C144.76 126.704 144.352 126.116 143.8 125.708C143.272 125.3 142.6 125.096 141.784 125.096C140.968 125.096 140.284 125.3 139.732 125.708C139.204 126.116 138.796 126.704 138.508 127.472C138.244 128.24 138.112 129.14 138.112 130.172C138.112 131.204 138.244 132.104 138.508 132.872C138.796 133.64 139.204 134.228 139.732 134.636C140.284 135.044 140.968 135.248 141.784 135.248ZM156.746 139.1V121.244H161.066L161.498 125.132H161.606C162.494 123.668 163.562 122.588 164.81 121.892C166.082 121.172 167.426 120.812 168.842 120.812C169.634 120.812 170.27 120.872 170.75 120.992C171.254 121.112 171.77 121.292 172.298 121.532L171.218 125.96C170.666 125.792 170.162 125.672 169.706 125.6C169.274 125.504 168.722 125.456 168.05 125.456C166.946 125.456 165.854 125.78 164.774 126.428C163.718 127.076 162.806 128.204 162.038 129.812V139.1H156.746ZM188.376 139.532C186.144 139.532 184.452 138.86 183.3 137.516C182.148 136.172 181.572 134.372 181.572 132.116V118.04H175.992V113.9H186.864V132.332C186.864 133.436 187.164 134.204 187.764 134.636C188.364 135.044 189.024 135.248 189.744 135.248C190.176 135.248 190.608 135.2 191.04 135.104C191.496 135.008 192 134.864 192.552 134.672L193.704 138.56C192.792 138.848 191.952 139.076 191.184 139.244C190.44 139.436 189.504 139.532 188.376 139.532ZM204.958 139.532C202.702 139.532 200.878 138.704 199.486 137.048C198.118 135.368 197.434 133.076 197.434 130.172C197.434 128.228 197.794 126.56 198.514 125.168C199.258 123.776 200.218 122.708 201.394 121.964C202.57 121.196 203.794 120.812 205.066 120.812C206.05 120.812 206.902 120.98 207.622 121.316C208.342 121.652 208.99 122.12 209.566 122.72H209.71L209.458 119.948V113.864H214.75V139.1H210.43L210.034 137.264H209.926C209.278 137.912 208.51 138.452 207.622 138.884C206.758 139.316 205.87 139.532 204.958 139.532ZM206.326 135.212C206.926 135.212 207.478 135.092 207.982 134.852C208.51 134.588 209.002 134.156 209.458 133.556V126.32C208.978 125.888 208.486 125.588 207.982 125.42C207.502 125.228 206.998 125.132 206.47 125.132C205.822 125.132 205.222 125.312 204.67 125.672C204.118 126.032 203.674 126.584 203.338 127.328C203.026 128.048 202.87 128.972 202.87 130.1C202.87 131.852 203.17 133.148 203.77 133.988C204.37 134.804 205.222 135.212 206.326 135.212ZM221.215 128.66L219.811 125.852C221.155 125.252 222.163 124.508 222.835 123.62C223.507 122.708 223.843 121.628 223.843 120.38L223.627 116.96L225.751 119.876C225.415 120.164 225.007 120.416 224.527 120.632C224.047 120.848 223.579 120.956 223.123 120.956C222.163 120.956 221.371 120.656 220.747 120.056C220.123 119.432 219.811 118.628 219.811 117.644C219.811 116.564 220.135 115.688 220.783 115.016C221.455 114.344 222.283 114.008 223.267 114.008C224.611 114.008 225.643 114.512 226.363 115.52C227.107 116.528 227.479 117.944 227.479 119.768C227.479 121.736 226.951 123.476 225.895 124.988C224.863 126.476 223.303 127.7 221.215 128.66ZM230.791 128.66L229.387 125.852C230.731 125.252 231.739 124.508 232.411 123.62C233.083 122.708 233.419 121.628 233.419 120.38L233.203 116.96L235.327 119.876C234.991 120.164 234.583 120.416 234.103 120.632C233.623 120.848 233.155 120.956 232.699 120.956C231.739 120.956 230.947 120.656 230.323 120.056C229.699 119.432 229.387 118.628 229.387 117.644C229.387 116.564 229.711 115.688 230.359 115.016C231.031 114.344 231.859 114.008 232.843 114.008C234.187 114.008 235.219 114.512 235.939 115.52C236.683 116.528 237.055 117.944 237.055 119.768C237.055 121.736 236.527 123.476 235.471 124.988C234.439 126.476 232.879 127.7 230.791 128.66Z" fill="white"/>
<path d="M34.0701 185.404L27.5541 179.788L31.1541 176.26L36.6621 182.812L34.0701 185.404ZM45.972 205.6L52.164 196.312L46.368 187.744H52.056L53.892 190.624C54.18 191.128 54.492 191.644 54.828 192.172C55.164 192.676 55.476 193.18 55.764 193.684H55.908C56.124 193.18 56.364 192.664 56.628 192.136C56.916 191.608 57.168 191.104 57.384 190.624L58.968 187.744H64.512L58.68 196.924L64.872 205.6H59.184L57.132 202.648C56.796 202.144 56.448 201.628 56.088 201.1C55.752 200.572 55.416 200.056 55.08 199.552H54.936C54.672 200.056 54.396 200.572 54.108 201.1C53.82 201.604 53.544 202.12 53.28 202.648L51.516 205.6H45.972ZM77.0259 194.404C75.8019 194.404 74.7939 193.996 74.0019 193.18C73.2339 192.364 72.8499 191.368 72.8499 190.192C72.8499 189.016 73.2339 188.02 74.0019 187.204C74.7939 186.364 75.8019 185.944 77.0259 185.944C78.2739 185.944 79.2819 186.364 80.0499 187.204C80.8179 188.02 81.2019 189.016 81.2019 190.192C81.2019 191.368 80.8179 192.364 80.0499 193.18C79.2819 193.996 78.2739 194.404 77.0259 194.404ZM77.0259 206.032C75.8019 206.032 74.7939 205.624 74.0019 204.808C73.2339 203.992 72.8499 202.996 72.8499 201.82C72.8499 200.644 73.2339 199.648 74.0019 198.832C74.7939 197.992 75.8019 197.572 77.0259 197.572C78.2739 197.572 79.2819 197.992 80.0499 198.832C80.8179 199.648 81.2019 200.644 81.2019 201.82C81.2019 202.996 80.8179 203.992 80.0499 204.808C79.2819 205.624 78.2739 206.032 77.0259 206.032ZM111.702 201.46L114.006 197.86C115.158 198.556 116.25 199.108 117.282 199.516C118.314 199.9 119.394 200.092 120.522 200.092C121.386 200.092 122.046 199.948 122.502 199.66C122.958 199.372 123.186 198.976 123.186 198.472C123.186 197.968 122.922 197.548 122.394 197.212C121.89 196.852 121.242 196.528 120.45 196.24C119.658 195.928 118.806 195.604 117.894 195.268C117.006 194.932 116.166 194.512 115.374 194.008C114.582 193.504 113.934 192.88 113.43 192.136C112.926 191.392 112.674 190.468 112.674 189.364C112.674 188.14 112.998 187.084 113.646 186.196C114.294 185.284 115.206 184.588 116.382 184.108C117.582 183.604 118.986 183.352 120.594 183.352C122.25 183.352 123.654 183.64 124.806 184.216C125.958 184.792 126.978 185.524 127.866 186.412L125.238 189.436C124.398 188.836 123.594 188.392 122.826 188.104C122.082 187.792 121.218 187.636 120.234 187.636C119.442 187.636 118.83 187.78 118.398 188.068C117.966 188.356 117.75 188.764 117.75 189.292C117.75 189.7 118.002 190.06 118.506 190.372C119.01 190.684 119.658 190.984 120.45 191.272C121.242 191.536 122.082 191.848 122.97 192.208C123.882 192.544 124.734 192.964 125.526 193.468C126.318 193.972 126.966 194.596 127.47 195.34C127.974 196.06 128.226 196.972 128.226 198.076C128.226 199.276 127.902 200.356 127.254 201.316C126.606 202.252 125.646 202.996 124.374 203.548C123.126 204.1 121.578 204.376 119.73 204.376C118.89 204.376 117.978 204.256 116.994 204.016C116.034 203.776 115.086 203.44 114.15 203.008C113.238 202.576 112.422 202.06 111.702 201.46ZM118.578 185.008V178.78H122.106V185.008H118.578ZM118.578 202.216H122.106V209.56H118.578V202.216ZM146.068 211.072C143.764 211.072 142.072 210.7 140.992 209.956C139.912 209.212 139.372 207.88 139.372 205.96C139.372 205.096 139.396 204.352 139.444 203.728C139.516 203.08 139.576 202.456 139.624 201.856C139.696 201.256 139.732 200.572 139.732 199.804C139.732 199.372 139.588 198.964 139.3 198.58C139.012 198.172 138.508 197.836 137.788 197.572C137.092 197.308 136.096 197.164 134.8 197.14V194.044C136.096 194.02 137.092 193.876 137.788 193.612C138.508 193.348 139.012 193.024 139.3 192.64C139.588 192.232 139.732 191.812 139.732 191.38C139.732 190.636 139.696 189.964 139.624 189.364C139.576 188.74 139.516 188.104 139.444 187.456C139.396 186.808 139.372 186.064 139.372 185.224C139.372 183.28 139.912 181.948 140.992 181.228C142.072 180.484 143.764 180.112 146.068 180.112H148.84V182.92H147.364C146.38 182.92 145.624 182.992 145.096 183.136C144.568 183.28 144.196 183.532 143.98 183.892C143.788 184.252 143.692 184.768 143.692 185.44C143.692 186.4 143.716 187.348 143.764 188.284C143.836 189.22 143.872 190.228 143.872 191.308C143.872 192.676 143.596 193.672 143.044 194.296C142.492 194.896 141.568 195.304 140.272 195.52V195.664C141.568 195.88 142.492 196.3 143.044 196.924C143.596 197.524 143.872 198.508 143.872 199.876C143.872 200.956 143.836 201.964 143.764 202.9C143.716 203.836 143.692 204.784 143.692 205.744C143.692 206.416 143.788 206.932 143.98 207.292C144.196 207.652 144.568 207.904 145.096 208.048C145.624 208.192 146.38 208.264 147.364 208.264H148.84V211.072H146.068ZM153.902 205.6L160.094 196.312L154.298 187.744H159.986L161.822 190.624C162.11 191.128 162.422 191.644 162.758 192.172C163.094 192.676 163.406 193.18 163.694 193.684H163.838C164.054 193.18 164.294 192.664 164.558 192.136C164.846 191.608 165.098 191.104 165.314 190.624L166.898 187.744H172.442L166.61 196.924L172.802 205.6H167.114L165.062 202.648C164.726 202.144 164.378 201.628 164.018 201.1C163.682 200.572 163.346 200.056 163.01 199.552H162.866C162.602 200.056 162.326 200.572 162.038 201.1C161.75 201.604 161.474 202.12 161.21 202.648L159.446 205.6H153.902ZM177.936 211.072V208.264H179.412C180.396 208.264 181.152 208.192 181.68 208.048C182.208 207.904 182.568 207.652 182.76 207.292C182.952 206.932 183.048 206.416 183.048 205.744C183.048 204.784 183.024 203.836 182.976 202.9C182.928 201.964 182.904 200.956 182.904 199.876C182.904 198.508 183.18 197.524 183.732 196.924C184.284 196.3 185.208 195.88 186.504 195.664V195.52C185.208 195.304 184.284 194.896 183.732 194.296C183.18 193.672 182.904 192.676 182.904 191.308C182.904 190.228 182.928 189.22 182.976 188.284C183.024 187.348 183.048 186.4 183.048 185.44C183.048 184.768 182.952 184.252 182.76 183.892C182.568 183.532 182.208 183.28 181.68 183.136C181.152 182.992 180.396 182.92 179.412 182.92H177.936V180.112H180.708C183.012 180.112 184.704 180.484 185.784 181.228C186.864 181.948 187.404 183.28 187.404 185.224C187.404 186.064 187.368 186.808 187.296 187.456C187.248 188.104 187.188 188.74 187.116 189.364C187.044 189.964 187.008 190.636 187.008 191.38C187.008 191.812 187.152 192.232 187.44 192.64C187.728 193.024 188.232 193.348 188.952 193.612C189.672 193.876 190.68 194.02 191.976 194.044V197.14C190.68 197.164 189.672 197.308 188.952 197.572C188.232 197.836 187.728 198.172 187.44 198.58C187.152 198.964 187.008 199.372 187.008 199.804C187.008 200.572 187.044 201.256 187.116 201.856C187.188 202.456 187.248 203.08 187.296 203.728C187.368 204.352 187.404 205.096 187.404 205.96C187.404 207.88 186.864 209.212 185.784 209.956C184.704 210.7 183.012 211.072 180.708 211.072H177.936ZM206.758 185.404L200.242 179.788L203.842 176.26L209.35 182.812L206.758 185.404Z" fill="white"/>
</g>
<defs>
<clipPath id="clip0_1_36">
<rect width="256" height="256" fill="white"/>
</clipPath>
</defs>
</svg>
