<?xml version="1.0" encoding="utf-8"?>
<!-- Generator: Adobe Illustrator 25.4.1, SVG Export Plug-In . SVG Version: 6.00 Build 0)  -->
<svg version="1.1" id="Layer_1" xmlns="http://www.w3.org/2000/svg" xmlns:xlink="http://www.w3.org/1999/xlink" x="0px" y="0px"
	 viewBox="0 0 256 256" style="enable-background:new 0 0 256 256;" xml:space="preserve">
<style type="text/css">
	.st0{fill:#004656;}
	.st1{fill:#00323A;}
	.st2{fill:#FFFFFF;}
</style>
<path class="st0" d="M211,256H45c-24.9,0-45-20.1-45-45V45C0,20.1,20.1,0,45,0h166c24.9,0,45,20.1,45,45v166
	C256,235.9,235.9,256,211,256z"/>
<path class="st1" d="M109.9,80.6h-80c-6.8,0-12.3-5.9-12.3-13.2V41.1c0-7.3,5.5-13.2,12.3-13.2h80c6.8,0,12.3,5.9,12.3,13.2v26.2
	C122.2,74.6,116.7,80.6,109.9,80.6z"/>
<path class="st1" d="M213.5,147.1H44c-7.2,0-13-5.9-13-13.2v-26.2c0-7.3,5.8-13.2,13-13.2h169.5c7.2,0,13,5.9,13,13.2v26.2
	C226.6,141.2,220.7,147.1,213.5,147.1z"/>
<g>
	<g>
		<path class="st2" d="M44.4,56.6c0-5.3-3.2-9.4-9.2-9.4C29.9,47.2,25,51,25,57.4c0,6.5,4.7,10.3,10.9,10.2c2.6,0,5.5-0.9,7.7-2.3
			l-1.9-3.5c-1.7,0.9-3.2,1.4-5,1.4c-3.2,0-5.2-1.2-5.8-4h13.3C44.2,58.7,44.4,57.7,44.4,56.6z M31,55.3c0.5-2.5,2.2-3.7,4.5-3.7
			c2.2,0,3.5,1.3,3.8,3.7H31z"/>
		<path class="st2" d="M49.1,57.4c0-6.5,5.3-10.2,11.3-10.2c3.1,0,5.7,1.1,7.3,2.7L65,53.5c-1.5-1.1-2.9-1.6-4.3-1.6
			c-3.4,0-5.7,2.2-5.7,5.6c0,3.4,2.3,5.6,5.5,5.6c2,0,3.7-0.9,5.1-1.9l2.3,3.7c-2.4,2-5.4,2.9-8,2.9C53.8,67.7,49.1,63.9,49.1,57.4z
			"/>
		<path class="st2" d="M72.9,39.6h5.8v6.7l-0.3,3.8h0.1c1.4-1.5,3.5-2.9,6.5-2.9c4.4,0,6.3,3,6.3,7.9v12.1h-5.8V55.9
			c0-2.6-0.7-3.8-2.9-3.8c-1.5,0-2.6,0.7-3.9,2v13h-5.8V39.6z"/>
		<path class="st2" d="M95.5,57.4c0-6.5,4.8-10.2,10-10.2s10,3.7,10,10.2s-4.8,10.2-10,10.2C100.3,67.7,95.5,63.9,95.5,57.4z
			 M109.5,57.4c0-3.4-1.4-5.6-4-5.6c-2.7,0-4,2.2-4,5.6c0,3.4,1.4,5.6,4,5.6S109.5,60.8,109.5,57.4z"/>
		<path class="st2" d="M143.7,39.6h5.8v6.7l-0.3,3.8h0.1c1.4-1.5,3.5-2.9,6.5-2.9c4.4,0,6.3,3,6.3,7.9v12.1h-5.8V55.9
			c0-2.6-0.7-3.8-2.9-3.8c-1.5,0-2.6,0.7-4,2v13h-5.8L143.7,39.6L143.7,39.6z"/>
		<path class="st2" d="M175.4,52.2h-7.9v-4.5h13.7v19.5h-5.8V52.2z M174.2,41.1c0-2.1,1.6-3.6,3.8-3.6s3.8,1.5,3.8,3.6
			s-1.6,3.5-3.8,3.5C175.8,44.6,174.2,43.2,174.2,41.1z"/>
	</g>
</g>
<g>
	<g>
		<path class="st2" d="M26,118c0,2.4-1.6,4-3.8,4c-2.9-0.1-4.6-2.4-4.6-6.4c0-4.3,2.3-7.6,6.9-9.7L26,109c-2.7,1.2-4.2,3-4.4,5.5
			c0.3-0.1,0.5-0.1,0.8-0.1C24.5,114.4,26,115.8,26,118z"/>
		<path class="st2" d="M36.8,105.8h5.8v6.7l-0.3,3.8h0.1c1.4-1.5,3.5-2.9,6.5-2.9c4.4,0,6.3,3,6.3,7.9v12.1h-5.8V122
			c0-2.6-0.7-3.8-2.9-3.8c-1.5,0-2.6,0.7-3.9,2v13h-5.8C36.8,133.2,36.8,105.8,36.8,105.8z"/>
		<path class="st2" d="M68.5,118.3h-7.9v-4.5h13.7v19.5h-5.8C68.5,133.3,68.5,118.3,68.5,118.3z M67.3,107.2c0-2.1,1.6-3.6,3.8-3.6
			s3.8,1.5,3.8,3.6s-1.6,3.5-3.8,3.5S67.3,109.3,67.3,107.2z"/>
		<path class="st2" d="M104.9,113.8h5.6l1.2,9.1c0.2,1.9,0.4,3.8,0.6,5.8h0.1c0.2-2,0.5-3.9,0.9-5.8l1.2-6.5h4.2l1.3,6.5
			c0.4,1.9,0.7,3.8,1,5.8h0.2c0.3-2,0.3-3.9,0.6-5.8l1.1-9.1h5.4l-3,19.5h-6.8l-1.1-6.3c-0.3-1.7-0.5-3.5-0.7-5.8h-0.2
			c-0.2,1.6-0.3,3.3-0.7,5.8l-1,6.3h-6.7L104.9,113.8z"/>
		<path class="st2" d="M130.3,123.6c0-6.5,4.8-10.2,10-10.2s10,3.7,10,10.2c0,6.5-4.8,10.2-10,10.2S130.3,130.1,130.3,123.6z
			 M144.3,123.6c0-3.4-1.4-5.6-4-5.6s-4,2.2-4,5.6s1.4,5.5,4,5.5S144.3,127,144.3,123.6z"/>
		<path class="st2" d="M156.6,113.8h4.8l0.5,4.3h0.1c1.9-3.2,4.8-4.7,7.9-4.7c1.7,0,2.6,0.3,3.8,0.8l-1.2,4.9
			c-1.2-0.4-2-0.6-3.5-0.6c-2.4,0-4.9,1.3-6.6,4.8v10.2h-5.8V113.8z"/>
		<path class="st2" d="M183.7,125.7v-15.4h-6.1v-4.5h11.9V126c0,2.4,1.6,3.2,3.2,3.2c0.9,0,1.9-0.2,3-0.6l1.3,4.3
			c-2,0.7-3.4,1.1-5.8,1.1C186.3,133.8,183.7,130.6,183.7,125.7z"/>
		<path class="st2" d="M201.1,123.6c0-6.4,4.1-10.2,8.3-10.2c2.1,0,3.6,0.8,4.9,2.1h0.1l-0.3-3v-6.7h5.8v27.6h-4.7l-0.4-2h-0.1
			c-1.4,1.4-3.5,2.5-5.4,2.5C204.4,133.8,201.1,130,201.1,123.6z M214.2,127.2v-7.9c-1-1-2.1-1.3-3.3-1.3c-2.1,0-3.9,1.7-3.9,5.4
			c0,3.8,1.4,5.5,3.8,5.5C212.1,129.1,213.2,128.6,214.2,127.2z"/>
		<path class="st2" d="M239.2,112.1c0,4.3-2.3,7.6-6.9,9.7l-1.5-2.9c2.8-1.2,4.2-3.1,4.4-5.6c-0.3,0.1-0.5,0.1-0.8,0.1
			c-2.1,0-3.6-1.4-3.6-3.6c0-2.4,1.6-4,3.8-4C237.5,105.8,239.2,108.1,239.2,112.1z"/>
	</g>
</g>
<path class="st1" d="M170.8,216.4h-108c-7.3,0-13.2-5.9-13.2-13.2V177c0-7.3,5.9-13.2,13.2-13.2h108c7.3,0,13.2,5.9,13.2,13.2v26.2
	C184.1,210.5,178.1,216.4,170.8,216.4z"/>
<g>
	<g>
		<path class="st2" d="M22.6,200.5c0-2.8,0.4-4.2,0.4-6.7c0-1.4-1.1-2.8-5.4-2.9v-3.4c4.2-0.1,5.4-1.5,5.4-2.9c0-2.5-0.4-4-0.4-6.7
			c0-4.3,2.3-5.6,7.3-5.6h3v3.1h-1.6c-3.3,0-4,0.6-4,2.8c0,2.1,0.2,4.1,0.2,6.4c0,3-1.1,4.1-4,4.6v0.2c2.8,0.5,4,1.6,4,4.6
			c0,2.4-0.2,4.3-0.2,6.4c0,2.2,0.7,2.8,4,2.8h1.6v3.1h-3C24.9,206.1,22.6,204.8,22.6,200.5z"/>
		<path class="st2" d="M63.5,172.5h5.8v6.7L69,183h0.1c1.4-1.5,3.5-2.9,6.5-2.9c4.4,0,6.3,3,6.3,7.9v12.1h-5.8v-11.3
			c0-2.6-0.7-3.8-2.9-3.8c-1.5,0-2.6,0.7-3.9,2v13h-5.8V172.5z"/>
		<path class="st2" d="M95.2,185.1h-7.9v-4.5H101v19.5h-5.8C95.2,200.1,95.2,185.1,95.2,185.1z M94,174c0-2.1,1.6-3.6,3.8-3.6
			s3.8,1.5,3.8,3.6s-1.6,3.5-3.8,3.5S94,176.1,94,174z"/>
		<path class="st2" d="M115,189.2c0-7.4,3.2-13.5,8.3-18l3.2,2.6c-4.7,4.6-6.7,9.2-6.7,15.4c0,6.2,2,10.9,6.7,15.4l-3.2,2.6
			C118.2,202.6,115,196.6,115,189.2z"/>
		<path class="st2" d="M136.5,204.6c4.7-4.6,6.7-9.2,6.7-15.4c0-6.2-2-10.9-6.7-15.4l3.2-2.6c5.1,4.5,8.3,10.6,8.3,18
			s-3.2,13.5-8.3,18L136.5,204.6z"/>
		<path class="st2" d="M167,178.7c-2.7,0-4.6,2-4.6,4.6s1.9,4.6,4.6,4.6s4.6-2,4.6-4.6C171.6,180.8,169.7,178.7,167,178.7z"/>
		<path class="st2" d="M172,198.5c0,5-2.9,8.6-8.3,10.2l-1.4-3.4c3.4-1.2,5.1-3.1,5.1-5.5c-0.1,0-0.3,0-0.4,0c-2.2,0-4.3-1.4-4.3-4
			c0-2.4,2-4,4.4-4C170.3,191.8,172,194.3,172,198.5z"/>
		<path class="st2" d="M206.5,203h1.6c3.2,0,4-0.6,4-2.8c0-2.1-0.2-4-0.2-6.4c0-3,1.1-4.1,3.9-4.6V189c-2.8-0.5-3.9-1.6-3.9-4.6
			c0-2.3,0.2-4.3,0.2-6.4c0-2.2-0.7-2.8-4-2.8h-1.6v-3h3c5.1,0,7.3,1.4,7.3,5.6c0,2.7-0.4,4.3-0.4,6.7c0,1.4,1.1,2.8,5.4,2.9v3.4
			c-4.3,0.1-5.4,1.5-5.4,2.9c0,2.5,0.4,3.9,0.4,6.7c0,4.3-2.3,5.6-7.3,5.6h-3V203z"/>
	</g>
</g>
</svg>
